{
    "asset" : {
        "generator" : "Khronos glTF Blender I/O v1.3.48",
        "version" : "2.0"
    },
    "scene" : 0,
    "scenes" : [
        {
            "name" : "Scene",
            "nodes" : [
                0
            ]
        }
    ],
    "nodes" : [
        {
            "mesh" : 0,
            "name" : "ArmChair_01"
        }
    ],
    "materials" : [
        {
            "doubleSided" : true,
            "emissiveFactor" : [
                0,
                0,
                0
            ],
            "name" : "Armchair_01",
            "normalTexture" : {
                "index" : 0,
                "texCoord" : 0
            },
            "pbrMetallicRoughness" : {
                "baseColorTexture" : {
                    "index" : 1,
                    "texCoord" : 0
                },
                "metallicRoughnessTexture" : {
                    "index" : 2,
                    "texCoord" : 0
                }
            }
        }
    ],
    "meshes" : [
        {
            "name" : "Cylinder.001",
            "primitives" : [
                {
                    "attributes" : {
                        "POSITION" : 0,
                        "NORMAL" : 1,
                        "TEXCOORD_0" : 2
                    },
                    "indices" : 3,
                    "material" : 0
                }
            ]
        }
    ],
    "textures" : [
        {
            "source" : 0
        },
        {
            "source" : 1
        },
        {
            "source" : 2
        }
    ],
    "images" : [
        {
            "bufferView" : 4,
            "mimeType" : "image/jpeg",
            "name" : "Armchair_01_nor_gl_2k"
        },
        {
            "bufferView" : 5,
            "mimeType" : "image/jpeg",
            "name" : "Armchair_01_diff_2k"
        },
        {
            "bufferView" : 6,
            "mimeType" : "image/jpeg",
            "name" : "Armchair_01_arm_2k"
        }
    ],
    "accessors" : [
        {
            "bufferView" : 0,
            "componentType" : 5126,
            "count" : 3770,
            "max" : [
                0.4242154657840729,
                1.064656138420105,
                0.34845367074012756
            ],
            "min" : [
                -0.4242154359817505,
                -0.0004314967372920364,
                -0.4173066020011902
            ],
            "type" : "VEC3"
        },
        {
            "bufferView" : 1,
            "componentType" : 5126,
            "count" : 3770,
            "type" : "VEC3"
        },
        {
            "bufferView" : 2,
            "componentType" : 5126,
            "count" : 3770,
            "type" : "VEC2"
        },
        {
            "bufferView" : 3,
            "componentType" : 5123,
            "count" : 16878,
            "type" : "SCALAR"
        }
    ],
    "bufferViews" : [
        {
            "buffer" : 0,
            "byteLength" : 45240,
            "byteOffset" : 0
        },
        {
            "buffer" : 0,
            "byteLength" : 45240,
            "byteOffset" : 45240
        },
        {
            "buffer" : 0,
            "byteLength" : 30160,
            "byteOffset" : 90480
        },
        {
            "buffer" : 0,
            "byteLength" : 33756,
            "byteOffset" : 120640
        },
        {
            "buffer" : 0,
            "byteLength" : 1482566,
            "byteOffset" : 154396
        },
        {
            "buffer" : 0,
            "byteLength" : 723200,
            "byteOffset" : 1636964
        },
        {
            "buffer" : 0,
            "byteLength" : 442886,
            "byteOffset" : 2360164
        }
    ],
    "buffers" : [
        {
            "byteLength" : 2803052,
            "uri" : "data:application/octet-stream;base64,"
        }
    ]
}
