{
    "asset" : {
        "copyright" : "Wakana Y.K.",
        "generator" : "Khronos glTF Blender I/O v1.3.48",
        "version" : "2.0"
    },
    "scene" : 0,
    "scenes" : [
        {
            "name" : "Scene",
            "nodes" : [
                0
            ]
        }
    ],
    "nodes" : [
        {
            "mesh" : 0,
            "name" : "room",
            "scale" : [
                1,
                0.75,
                1
            ]
        }
    ],
    "meshes" : [
        {
            "name" : "Cube",
            "primitives" : [
                {
                    "attributes" : {
                        "POSITION" : 0,
                        "NORMAL" : 1,
                        "TEXCOORD_0" : 2
                    },
                    "indices" : 3
                }
            ]
        }
    ],
    "accessors" : [
        {
            "bufferView" : 0,
            "componentType" : 5126,
            "count" : 1762,
            "max" : [
                5,
                5,
                5
            ],
            "min" : [
                -5,
                -5,
                -5
            ],
            "type" : "VEC3"
        },
        {
            "bufferView" : 1,
            "componentType" : 5126,
            "count" : 1762,
            "type" : "VEC3"
        },
        {
            "bufferView" : 2,
            "componentType" : 5126,
            "count" : 1762,
            "type" : "VEC2"
        },
        {
            "bufferView" : 3,
            "componentType" : 5123,
            "count" : 2634,
            "type" : "SCALAR"
        }
    ],
    "bufferViews" : [
        {
            "buffer" : 0,
            "byteLength" : 21144,
            "byteOffset" : 0
        },
        {
            "buffer" : 0,
            "byteLength" : 21144,
            "byteOffset" : 21144
        },
        {
            "buffer" : 0,
            "byteLength" : 14096,
            "byteOffset" : 42288
        },
        {
            "buffer" : 0,
            "byteLength" : 5268,
            "byteOffset" : 56384
        }
    ],
    "buffers" : [
        {
            "byteLength" : 61652,
            "uri" : "data:application/octet-stream;base64,"
        }
    ]
}
