{
    "asset" : {
        "generator" : "Khronos glTF Blender I/O v1.3.48",
        "version" : "2.0"
    },
    "extensionsUsed" : [
        "KHR_texture_transform"
    ],
    "extensionsRequired" : [
        "KHR_texture_transform"
    ],
    "scene" : 0,
    "scenes" : [
        {
            "name" : "Scene",
            "nodes" : [
                0
            ]
        }
    ],
    "nodes" : [
        {
            "mesh" : 0,
            "name" : "sphere_gltf"
        }
    ],
    "materials" : [
        {
            "doubleSided" : true,
            "emissiveFactor" : [
                0,
                0,
                0
            ],
            "name" : "wood_cabinet_worn_long",
            "normalTexture" : {
                "extensions" : {
                    "KHR_texture_transform" : {
                        "offset" : [
                            0,
                            -1
                        ],
                        "scale" : [
                            1,
                            2
                        ]
                    }
                },
                "index" : 0,
                "texCoord" : 0
            },
            "pbrMetallicRoughness" : {
                "baseColorTexture" : {
                    "extensions" : {
                        "KHR_texture_transform" : {
                            "offset" : [
                                0,
                                -1
                            ],
                            "scale" : [
                                1,
                                2
                            ]
                        }
                    },
                    "index" : 1,
                    "texCoord" : 0
                },
                "metallicRoughnessTexture" : {
                    "extensions" : {
                        "KHR_texture_transform" : {
                            "offset" : [
                                0,
                                -1
                            ],
                            "scale" : [
                                1,
                                2
                            ]
                        }
                    },
                    "index" : 2,
                    "texCoord" : 0
                }
            }
        }
    ],
    "meshes" : [
        {
            "name" : "Sphere.001",
            "primitives" : [
                {
                    "attributes" : {
                        "POSITION" : 0
                    },
                    "indices" : 1,
                    "material" : 0
                }
            ]
        }
    ],
    "textures" : [
        {
            "source" : 0
        },
        {
            "source" : 1
        },
        {
            "source" : 2
        }
    ],
    "images" : [
        {
            "bufferView" : 2,
            "mimeType" : "image/jpeg",
            "name" : "wood_cabinet_worn_long_nor_gl_1k"
        },
        {
            "bufferView" : 3,
            "mimeType" : "image/jpeg",
            "name" : "wood_cabinet_worn_long_diff_1k"
        },
        {
            "bufferView" : 4,
            "mimeType" : "image/jpeg",
            "name" : "wood_cabinet_worn_long_rough_1k"
        }
    ],
    "accessors" : [
        {
            "bufferView" : 0,
            "componentType" : 5126,
            "count" : 53697,
            "max" : [
                0.5054358839988708,
                0.5069289803504944,
                0.5027799606323242
            ],
            "min" : [
                -0.5054359436035156,
                -0.5055431723594666,
                -0.5027785301208496
            ],
            "type" : "VEC3"
        },
        {
            "bufferView" : 1,
            "componentType" : 5123,
            "count" : 322170,
            "type" : "SCALAR"
        }
    ],
    "bufferViews" : [
        {
            "buffer" : 0,
            "byteLength" : 644364,
            "byteOffset" : 0
        },
        {
            "buffer" : 0,
            "byteLength" : 644340,
            "byteOffset" : 644364
        },
        {
            "buffer" : 0,
            "byteLength" : 443331,
            "byteOffset" : 1288704
        },
        {
            "buffer" : 0,
            "byteLength" : 420840,
            "byteOffset" : 1732036
        },
        {
            "buffer" : 0,
            "byteLength" : 325276,
            "byteOffset" : 2152876
        }
    ],
    "buffers" : [
        {
            "byteLength" : 2478152,
            "uri" : "data:application/octet-stream;base64,"
        }
    ]
}
