{
    "asset" : {
        "generator" : "Khronos glTF Blender I/O v1.3.48",
        "version" : "2.0"
    },
    "scene" : 0,
    "scenes" : [
        {
            "name" : "Scene",
            "nodes" : [
                0
            ]
        }
    ],
    "nodes" : [
        {
            "mesh" : 0,
            "name" : "round_wooden_table_01"
        }
    ],
    "materials" : [
        {
            "doubleSided" : true,
            "emissiveFactor" : [
                0,
                0,
                0
            ],
            "name" : "round_wooden_table_01",
            "normalTexture" : {
                "index" : 0,
                "texCoord" : 0
            },
            "pbrMetallicRoughness" : {
                "baseColorTexture" : {
                    "index" : 1,
                    "texCoord" : 0
                },
                "metallicRoughnessTexture" : {
                    "index" : 2,
                    "texCoord" : 0
                }
            }
        }
    ],
    "meshes" : [
        {
            "name" : "Cylinder",
            "primitives" : [
                {
                    "attributes" : {
                        "POSITION" : 0,
                        "NORMAL" : 1,
                        "TEXCOORD_0" : 2
                    },
                    "indices" : 3,
                    "material" : 0
                }
            ]
        }
    ],
    "textures" : [
        {
            "source" : 0
        },
        {
            "source" : 1
        },
        {
            "source" : 2
        }
    ],
    "images" : [
        {
            "bufferView" : 4,
            "mimeType" : "image/jpeg",
            "name" : "round_wooden_table_01_nor_gl_2k"
        },
        {
            "bufferView" : 5,
            "mimeType" : "image/jpeg",
            "name" : "round_wooden_table_01_diff_2k"
        },
        {
            "bufferView" : 6,
            "mimeType" : "image/jpeg",
            "name" : "round_wooden_table_01_arm_2k"
        }
    ],
    "accessors" : [
        {
            "bufferView" : 0,
            "componentType" : 5126,
            "count" : 5401,
            "max" : [
                0.6996744871139526,
                1.003702998161316,
                0.6996744871139526
            ],
            "min" : [
                -0.6996744871139526,
                -0.0013183951377868652,
                -0.6996744275093079
            ],
            "type" : "VEC3"
        },
        {
            "bufferView" : 1,
            "componentType" : 5126,
            "count" : 5401,
            "type" : "VEC3"
        },
        {
            "bufferView" : 2,
            "componentType" : 5126,
            "count" : 5401,
            "type" : "VEC2"
        },
        {
            "bufferView" : 3,
            "componentType" : 5123,
            "count" : 23784,
            "type" : "SCALAR"
        }
    ],
    "bufferViews" : [
        {
            "buffer" : 0,
            "byteLength" : 64812,
            "byteOffset" : 0
        },
        {
            "buffer" : 0,
            "byteLength" : 64812,
            "byteOffset" : 64812
        },
        {
            "buffer" : 0,
            "byteLength" : 43208,
            "byteOffset" : 129624
        },
        {
            "buffer" : 0,
            "byteLength" : 47568,
            "byteOffset" : 172832
        },
        {
            "buffer" : 0,
            "byteLength" : 194669,
            "byteOffset" : 220400
        },
        {
            "buffer" : 0,
            "byteLength" : 435742,
            "byteOffset" : 415072
        },
        {
            "buffer" : 0,
            "byteLength" : 441023,
            "byteOffset" : 850816
        }
    ],
    "buffers" : [
        {
            "byteLength" : 1291840,
            "uri" : "data:application/octet-stream;base64,"
        }
    ]
}
