{
    "asset" : {
        "generator" : "Khronos glTF Blender I/O v1.3.48",
        "version" : "2.0"
    },
    "scene" : 0,
    "scenes" : [
        {
            "name" : "Scene",
            "nodes" : [
                0,
                1
            ]
        }
    ],
    "nodes" : [
        {
            "mesh" : 0,
            "name" : "tea_set_01_saucer_circular_03",
            "translation" : [
                0,
                0,
                -1.5238765627145767e-05
            ]
        },
        {
            "mesh" : 1,
            "name" : "tea_set_01_cup_small_02",
            "translation" : [
                0,
                0.000652502232696861,
                0.00016757205594331026
            ]
        }
    ],
    "meshes" : [
        {
            "name" : "Circle.022",
            "primitives" : [
                {
                    "attributes" : {
                        "POSITION" : 0,
                        "NORMAL" : 1,
                        "TEXCOORD_0" : 2
                    },
                    "indices" : 3
                }
            ]
        },
        {
            "name" : "Circle.003",
            "primitives" : [
                {
                    "attributes" : {
                        "POSITION" : 4,
                        "NORMAL" : 5,
                        "TEXCOORD_0" : 6
                    },
                    "indices" : 7
                }
            ]
        }
    ],
    "accessors" : [
        {
            "bufferView" : 0,
            "componentType" : 5126,
            "count" : 1490,
            "max" : [
                0.07447617501020432,
                0.015210483223199844,
                0.0744762048125267
            ],
            "min" : [
                -0.0744761973619461,
                -0.0007006535306572914,
                -0.0744762048125267
            ],
            "type" : "VEC3"
        },
        {
            "bufferView" : 1,
            "componentType" : 5126,
            "count" : 1490,
            "type" : "VEC3"
        },
        {
            "bufferView" : 2,
            "componentType" : 5126,
            "count" : 1490,
            "type" : "VEC2"
        },
        {
            "bufferView" : 3,
            "componentType" : 5123,
            "count" : 8640,
            "type" : "SCALAR"
        },
        {
            "bufferView" : 4,
            "componentType" : 5126,
            "count" : 2328,
            "max" : [
                0.05345918610692024,
                0.0697360709309578,
                0.053459182381629944
            ],
            "min" : [
                -0.05345918610692024,
                0.002385602565482259,
                -0.07950614392757416
            ],
            "type" : "VEC3"
        },
        {
            "bufferView" : 5,
            "componentType" : 5126,
            "count" : 2328,
            "type" : "VEC3"
        },
        {
            "bufferView" : 6,
            "componentType" : 5126,
            "count" : 2328,
            "type" : "VEC2"
        },
        {
            "bufferView" : 7,
            "componentType" : 5123,
            "count" : 12468,
            "type" : "SCALAR"
        }
    ],
    "bufferViews" : [
        {
            "buffer" : 0,
            "byteLength" : 17880,
            "byteOffset" : 0
        },
        {
            "buffer" : 0,
            "byteLength" : 17880,
            "byteOffset" : 17880
        },
        {
            "buffer" : 0,
            "byteLength" : 11920,
            "byteOffset" : 35760
        },
        {
            "buffer" : 0,
            "byteLength" : 17280,
            "byteOffset" : 47680
        },
        {
            "buffer" : 0,
            "byteLength" : 27936,
            "byteOffset" : 64960
        },
        {
            "buffer" : 0,
            "byteLength" : 27936,
            "byteOffset" : 92896
        },
        {
            "buffer" : 0,
            "byteLength" : 18624,
            "byteOffset" : 120832
        },
        {
            "buffer" : 0,
            "byteLength" : 24936,
            "byteOffset" : 139456
        }
    ],
    "buffers" : [
        {
            "byteLength" : 164392,
            "uri" : "data:application/octet-stream;base64,"
        }
    ]
}
